<?xml version="1.0" encoding="UTF-8"?>
<svg width="26px" height="26px" viewBox="0 0 26 26" version="1.1" xmlns="http://www.w3.org/2000/svg" xmlns:xlink="http://www.w3.org/1999/xlink">
    <!-- Generator: Sketch 58 (84663) - https://sketch.com -->
    <title>c</title>
    <desc>Created with Sketch.</desc>
    <g id="Page-3" stroke="none" stroke-width="1" fill="none" fill-rule="evenodd">
        <g id="Tablet" transform="translate(-114.000000, -707.000000)" fill="#333333" fill-rule="nonzero">
            <g id="icons" transform="translate(76.000000, 618.000000)">
                <path d="M50.999969,89.6563033 C44.0446404,89.6563033 38.406249,95.2946947 38.406249,102.250023 C38.406249,109.205352 44.0446404,114.843743 50.999969,114.843743 C57.9552976,114.843743 63.593689,109.205352 63.593689,102.250023 C63.593689,95.2946947 57.9552976,89.6563033 50.999969,89.6563033 Z M50.999969,113.218747 C44.9740739,113.218747 40.0312452,108.340982 40.0312452,102.250023 C40.0312452,96.2241778 44.9090106,91.2812994 50.999969,91.2812994 C57.0258641,91.2812994 61.9686929,96.1590649 61.9686929,102.250023 C61.9686929,108.275869 57.0909274,113.218747 50.999969,113.218747 Z M58.1920943,99.2559203 L49.027142,108.347379 C48.7882128,108.584374 48.4023457,108.582837 48.1653505,108.343907 L43.8043723,103.94767 C43.5673772,103.708741 43.5689145,103.322923 43.8078437,103.085928 L44.2404751,102.656768 C44.4794043,102.419773 44.8652714,102.42131 45.1022665,102.66024 L48.6049247,106.191214 L56.9046638,97.9580756 C57.143593,97.7210805 57.5294105,97.7225682 57.7664057,97.9614974 L58.1955657,98.3941784 C58.4326104,98.6331076 58.4310235,99.0189251 58.1920943,99.2559203 Z" id="c"></path>
            </g>
        </g>
    </g>
</svg>