<?xml version="1.0" encoding="UTF-8"?>
<svg width="20px" height="20px" viewBox="0 0 20 20" version="1.1" xmlns="http://www.w3.org/2000/svg" xmlns:xlink="http://www.w3.org/1999/xlink">
    <!-- Generator: Sketch 58 (84663) - https://sketch.com -->
    <title>p</title>
    <desc>Created with Sketch.</desc>
    <g id="Page-3" stroke="none" stroke-width="1" fill="none" fill-rule="evenodd">
        <g id="Tablet" transform="translate(-76.000000, -710.000000)" fill="#333333" fill-rule="nonzero">
            <g id="icons" transform="translate(76.000000, 618.000000)">
                <path d="M19.0937045,101.031276 C19.3181531,101.031276 19.4999535,101.213077 19.4999535,101.437525 L19.4999535,103.062521 C19.4999535,103.28697 19.3181531,103.46877 19.0937045,103.46877 L10.9687238,103.46877 L10.9687238,111.593751 C10.9687238,111.8182 10.7869234,112 10.5624748,112 L8.93747869,112 C8.71303007,112 8.53122966,111.8182 8.53122966,111.593751 L8.53122966,103.46877 L0.406249031,103.46877 C0.181800409,103.46877 0,103.28697 0,103.062521 L0,101.437525 C0,101.213077 0.181800409,101.031276 0.406249031,101.031276 L8.53122966,101.031276 L8.53122966,92.9062955 C8.53122966,92.6818469 8.71303007,92.5000465 8.93747869,92.5000465 L10.5624748,92.5000465 C10.7869234,92.5000465 10.9687238,92.6818469 10.9687238,92.9062955 L10.9687238,101.031276 L19.0937045,101.031276 Z" id="p"></path>
            </g>
        </g>
    </g>
</svg>