<?xml version="1.0" encoding="UTF-8"?>
<svg width="198px" height="29px" viewBox="0 0 198 29" version="1.1" xmlns="http://www.w3.org/2000/svg" xmlns:xlink="http://www.w3.org/1999/xlink">
    <!-- Generator: Sketch 58 (84663) - https://sketch.com -->
    <title>logo</title>
    <desc>Created with Sketch.</desc>
    <g id="Page-1" stroke="none" stroke-width="1" fill="none" fill-rule="evenodd">
        <g id="Tablet" transform="translate(-60.000000, -67.000000)" fill="#333333">
            <g id="app">
                <g id="content">
                    <g id="logo" transform="translate(60.000000, 67.000000)">
                        <path d="M24.826694,8.10797352 C30.7840747,8.10797352 34.4914575,12.1733105 34.4914575,18.258532 C34.4914575,24.3054013 30.7840747,28.3835224 24.826694,28.3835224 C18.8693133,28.3835224 15.1619305,24.3054013 15.1619305,18.258532 C15.1619305,12.1733105 18.8693133,8.10797352 24.826694,8.10797352 Z M69.7883417,8.10797352 C75.7457224,8.10797352 79.4531052,12.1733105 79.4531052,18.258532 C79.4531052,24.3054013 75.7457224,28.3835224 69.7883417,28.3835224 C63.8309611,28.3835224 60.1235782,24.3054013 60.1235782,18.258532 C60.1235782,12.1733105 63.8309611,8.10797352 69.7883417,8.10797352 Z M118.917604,8.10797352 C123.877826,8.10797352 126.792596,10.3451873 127.278391,13.9630816 L127.278391,13.9630816 L122.292601,14.2698995 C122.024135,13.0042757 120.899136,11.9687653 119.007093,11.9687653 C117.319594,11.9687653 115.99005,12.73581 116.002834,13.9119453 C115.99005,14.8579671 116.667606,15.4843869 118.495729,15.8806934 L118.495729,15.8806934 L122.049703,16.5966018 C125.859359,17.3764306 127.71305,19.0767131 127.725834,21.9147785 C127.71305,25.7883544 124.069588,28.3835224 118.981524,28.3835224 C113.778404,28.3835224 110.582385,26.0696041 110.071021,22.311085 L110.071021,22.311085 L115.42755,22.0298352 C115.759937,23.6278451 117.051128,24.4588102 118.994308,24.4588102 C120.899136,24.4588102 122.16476,23.6278451 122.190328,22.4644939 C122.16476,21.4801199 121.384931,20.8537 119.671865,20.5085299 L119.671865,20.5085299 L116.2713,19.8309737 C112.436076,19.063929 110.582385,17.1591012 110.595169,14.2187631 C110.582385,10.4346758 113.893461,8.10797352 118.917604,8.10797352 Z M56.4545258,1.81820679 L56.4545258,28 L51.0852128,28 L51.0852128,24.8551166 L50.8550993,24.8551166 C50.1008387,26.4914787 48.4516925,28.319602 45.281241,28.319602 C40.8068135,28.319602 37.31676,24.7784122 37.31676,18.2073957 C37.31676,11.4574021 40.9602224,8.10797352 45.2684569,8.10797352 C48.5539652,8.10797352 50.1264069,10.0639376 50.8550993,11.6619474 L50.8550993,11.6619474 L51.0212924,11.6619474 L51.0212924,1.81820679 L56.4545258,1.81820679 Z M8.92328694,3.65911412 L8.92328694,8.36365509 L12.6178857,8.36365509 L12.6178857,12.4545603 L8.92328694,12.4545603 L8.92328694,21.9659148 C8.92328694,23.4744361 9.67754759,23.8835267 10.7641943,23.8835267 C11.2755574,23.8835267 11.850841,23.7556859 12.1193066,23.7045496 L12.1193066,23.7045496 L12.9758399,27.7571025 C12.4261245,27.9360796 11.4289664,28.2173293 10.0227177,28.2684657 C6.07243739,28.4346587 3.45170125,26.5298309 3.47726941,22.6818233 L3.47726941,22.6818233 L3.47726941,12.4545603 L0.79261288,12.4545603 L0.79261288,8.36365509 L3.47726941,8.36365509 L3.47726941,3.65911412 L8.92328694,3.65911412 Z M137.914764,3.65911412 L137.914764,8.36365509 L141.609363,8.36365509 L141.609363,12.4545603 L137.914764,12.4545603 L137.914764,21.9659148 C137.914764,23.4744361 138.669025,23.8835267 139.755672,23.8835267 C140.267035,23.8835267 140.842318,23.7556859 141.110784,23.7045496 L141.110784,23.7045496 L141.967317,27.7571025 C141.417602,27.9360796 140.420444,28.2173293 139.014195,28.2684657 C135.063915,28.4346587 132.443179,26.5298309 132.468747,22.6818233 L132.468747,22.6818233 L132.468747,12.4545603 L129.78409,12.4545603 L129.78409,8.36365509 L132.468747,8.36365509 L132.468747,3.65911412 L137.914764,3.65911412 Z M96.8011291,28 L96.8011291,28 L91.3551116,28 L91.3551116,1.81820679 L96.8011291,1.81820679 Z M106.593743,8.36365509 L106.593743,28 L101.147725,28 L101.147725,8.36365509 L106.593743,8.36365509 Z M24.8522622,12.2627991 C22.1036852,12.2627991 20.6974366,14.7940467 20.6974366,18.2201798 C20.6974366,21.6463129 22.1036852,24.1647764 24.8522622,24.1647764 C27.5497028,24.1647764 28.9559514,21.6463129 28.9559514,18.2201798 C28.9559514,14.7940467 27.5497028,12.2627991 24.8522622,12.2627991 Z M69.8139099,12.2627991 C67.065333,12.2627991 65.6590843,14.7940467 65.6590843,18.2201798 C65.6590843,21.6463129 67.065333,24.1647764 69.8139099,24.1647764 C72.5113505,24.1647764 73.9175992,21.6463129 73.9175992,18.2201798 C73.9175992,14.7940467 72.5113505,12.2627991 69.8139099,12.2627991 Z M47.0070917,12.4417762 C44.309651,12.4417762 42.8778342,14.7812626 42.8778342,18.1818275 C42.8778342,21.6079606 44.3352192,23.9857993 47.0070917,23.9857993 C49.6278278,23.9857993 51.1363491,21.6846651 51.1363491,18.1818275 C51.1363491,14.67899 49.6533959,12.4417762 47.0070917,12.4417762 Z M198,14 L198,16 L158,16 L158,14 L198,14 Z M103.883518,0.322469577 C105.507096,0.322469577 106.83664,1.56252521 106.83664,3.0710465 C106.83664,4.59235187 105.507096,5.8324075 103.883518,5.8324075 C102.272724,5.8324075 100.94318,4.59235187 100.94318,3.0710465 C100.94318,1.56252521 102.272724,0.322469577 103.883518,0.322469577 Z" id="Combined-Shape"></path>
                    </g>
                </g>
            </g>
        </g>
    </g>
</svg>