<?xml version="1.0" encoding="UTF-8"?>
<svg width="26px" height="27px" viewBox="0 0 101 102" version="1.1" xmlns="http://www.w3.org/2000/svg" xmlns:xlink="http://www.w3.org/1999/xlink">
    <!-- Generator: Sketch 58 (84663) - https://sketch.com -->
    <title>s</title>
    <desc>Created with Sketch.</desc>
    <g id="Page-3" stroke="none" stroke-width="1" fill="none" fill-rule="evenodd">
        <g id="Tablet" transform="translate(-160.000000, -707.000000)" fill="#333333" fill-rule="nonzero">
            <g id="icons" transform="translate(76.000000, 618.000000)">
                <path d="M109.822204,113.706226 L103.271438,107.15546 C103.154652,107.038674 103.002308,106.977727 102.839799,106.977727 L102.316763,106.977727 C104.058546,105.093766 105.12495,102.580101 105.12495,99.8125291 C105.12495,93.9777575 100.397246,89.2500542 94.5624748,89.2500542 C88.7277033,89.2500542 84,93.9777575 84,99.8125291 C84,105.647301 88.7277033,110.375004 94.5624748,110.375004 C97.3300463,110.375004 99.8437122,109.3086 101.727672,107.571876 L101.727672,108.089853 C101.727672,108.252363 101.793727,108.404706 101.905406,108.521493 L108.456172,115.072258 C108.694853,115.31094 109.080819,115.31094 109.319451,115.072258 L109.822204,114.569505 C110.060885,114.330874 110.060885,113.944907 109.822204,113.706226 Z M94.5624748,108.750008 C89.6214809,108.750008 85.6249961,104.753523 85.6249961,99.8125291 C85.6249961,94.8715351 89.6214809,90.8750504 94.5624748,90.8750504 C99.5034687,90.8750504 103.499954,94.8715351 103.499954,99.8125291 C103.499954,104.753523 99.5034687,108.750008 94.5624748,108.750008 Z" id="s"></path>
            </g>
        </g>
    </g>
</svg>